<svg xmlns="http://www.w3.org/2000/svg" xmlns:xlink="http://www.w3.org/1999/xlink" width="2000" zoomAndPan="magnify" viewBox="0 0 1500 1499.999933" height="2000" preserveAspectRatio="xMidYMid meet" version="1.0"><defs><g/></defs><g fill="#535353" fill-opacity="1"><g transform="translate(352.116711, 812.24991)"><g><path d="M 1.226562 0 L 1.226562 -3.925781 L 9.820312 -3.925781 C 11.386719 -3.925781 12.320312 -4.199219 12.632812 -4.753906 C 13.1875 -5.742188 13.464844 -8.023438 13.464844 -11.589844 L 13.464844 -102.875 C 13.464844 -106.671875 13.179688 -109.097656 12.613281 -110.148438 C 12.296875 -110.734375 11.367188 -111.027344 9.820312 -111.027344 L 1.226562 -111.027344 L 1.226562 -117.265625 L 52.0625 -117.265625 L 52.0625 -111.027344 L 43.308594 -111.027344 C 41.730469 -111.027344 40.761719 -110.714844 40.402344 -110.089844 C 39.804688 -109.054688 39.503906 -106.648438 39.503906 -102.875 L 39.503906 -11.589844 C 39.503906 -8.046875 39.796875 -5.789062 40.382812 -4.8125 C 40.738281 -4.21875 41.710938 -3.925781 43.308594 -3.925781 L 52.0625 -3.925781 L 52.0625 2.3125 L 1.226562 2.3125 Z M 5.855469 0 L 3.542969 0 L 3.542969 -2.3125 L 49.746094 -2.3125 L 49.746094 0 L 47.433594 0 L 47.433594 -1.609375 L 49.746094 -1.609375 L 49.746094 0.703125 L 43.308594 0.703125 C 39.964844 0.703125 37.667969 -0.339844 36.414062 -2.433594 C 35.386719 -4.140625 34.875 -7.191406 34.875 -11.589844 L 34.875 -102.875 C 34.875 -107.476562 35.382812 -110.652344 36.394531 -112.402344 C 37.644531 -114.570312 39.949219 -115.65625 43.308594 -115.65625 L 49.746094 -115.65625 L 49.746094 -113.339844 L 47.433594 -113.339844 L 47.433594 -114.949219 L 49.746094 -114.949219 L 49.746094 -112.636719 L 3.542969 -112.636719 L 3.542969 -114.949219 L 5.855469 -114.949219 L 5.855469 -113.339844 L 3.542969 -113.339844 L 3.542969 -115.65625 L 9.820312 -115.65625 C 13.210938 -115.65625 15.5 -114.550781 16.6875 -112.34375 C 17.625 -110.605469 18.09375 -107.449219 18.09375 -102.875 L 18.09375 -11.589844 C 18.09375 -7.21875 17.617188 -4.183594 16.667969 -2.492188 C 15.476562 -0.359375 13.195312 0.703125 9.820312 0.703125 L 3.542969 0.703125 L 3.542969 -1.609375 L 5.855469 -1.609375 Z M 5.855469 0 "/></g></g></g><g fill="#535353" fill-opacity="1"><g transform="translate(402.02423, 812.24991)"><g><path d="M 1.226562 0 L 1.226562 -3.925781 L 9.980469 -3.925781 C 12.429688 -3.925781 13.988281 -4.367188 14.652344 -5.253906 C 15.46875 -6.34375 15.878906 -8.832031 15.878906 -12.71875 L 15.878906 -102.714844 C 15.878906 -106.527344 15.53125 -108.929688 14.839844 -109.929688 C 14.335938 -110.660156 13.039062 -111.027344 10.949219 -111.027344 L 1.226562 -111.027344 L 1.226562 -117.265625 L 38.773438 -117.265625 L 86.265625 -23.261719 L 84.199219 -22.21875 L 81.886719 -22.21875 L 81.886719 -102.714844 C 81.886719 -106.527344 81.539062 -108.929688 80.847656 -109.929688 C 80.34375 -110.660156 79.097656 -111.027344 77.117188 -111.027344 L 65.785156 -111.027344 L 65.785156 -117.265625 L 104.0625 -117.265625 L 104.0625 -111.027344 L 93.054688 -111.027344 C 91 -111.027344 89.714844 -110.628906 89.207031 -109.835938 C 88.484375 -108.714844 88.125 -106.179688 88.125 -102.230469 L 88.125 2.3125 L 72.632812 2.3125 L 17.738281 -106.339844 L 19.800781 -107.382812 L 22.117188 -107.382812 L 22.117188 -12.71875 C 22.117188 -8.769531 22.476562 -6.238281 23.199219 -5.117188 C 23.707031 -4.320312 24.9375 -3.925781 26.886719 -3.925781 L 38.378906 -3.925781 L 38.378906 2.3125 L 1.226562 2.3125 Z M 5.855469 0 L 3.542969 0 L 3.542969 -2.3125 L 36.0625 -2.3125 L 36.0625 0 L 33.75 0 L 33.75 -1.609375 L 36.0625 -1.609375 L 36.0625 0.703125 L 26.886719 0.703125 C 23.253906 0.703125 20.726562 -0.402344 19.304688 -2.613281 C 18.09375 -4.496094 17.488281 -7.863281 17.488281 -12.71875 L 17.488281 -107.382812 L 21.867188 -108.425781 L 76.125 -1.042969 L 74.058594 0 L 74.058594 -2.3125 L 85.808594 -2.3125 L 85.808594 0 L 83.496094 0 L 83.496094 -102.230469 C 83.496094 -107.085938 84.101562 -110.453125 85.3125 -112.339844 C 86.734375 -114.550781 89.316406 -115.65625 93.054688 -115.65625 L 101.75 -115.65625 L 101.75 -113.339844 L 99.433594 -113.339844 L 99.433594 -114.949219 L 101.75 -114.949219 L 101.75 -112.636719 L 68.101562 -112.636719 L 68.101562 -114.949219 L 70.414062 -114.949219 L 70.414062 -113.339844 L 68.101562 -113.339844 L 68.101562 -115.65625 L 77.117188 -115.65625 C 80.714844 -115.65625 83.226562 -114.625 84.652344 -112.566406 C 85.894531 -110.773438 86.515625 -107.488281 86.515625 -102.714844 L 86.515625 -22.21875 L 82.132812 -21.171875 L 35.285156 -113.90625 L 37.351562 -114.949219 L 37.351562 -112.636719 L 3.542969 -112.636719 L 3.542969 -114.949219 L 5.855469 -114.949219 L 5.855469 -113.339844 L 3.542969 -113.339844 L 3.542969 -115.65625 L 10.949219 -115.65625 C 14.652344 -115.65625 17.21875 -114.625 18.644531 -112.566406 C 19.886719 -110.773438 20.507812 -107.488281 20.507812 -102.714844 L 20.507812 -12.71875 C 20.507812 -7.804688 19.789062 -4.390625 18.351562 -2.476562 C 16.761719 -0.355469 13.972656 0.703125 9.980469 0.703125 L 3.542969 0.703125 L 3.542969 -1.609375 L 5.855469 -1.609375 Z M 5.855469 0 "/></g></g></g><g fill="#535353" fill-opacity="1"><g transform="translate(502.483321, 812.24991)"><g><path d="M 1.226562 0 L 1.226562 -3.925781 L 9.980469 -3.925781 C 12.429688 -3.925781 13.988281 -4.367188 14.652344 -5.253906 C 15.46875 -6.34375 15.878906 -8.832031 15.878906 -12.71875 L 15.878906 -102.714844 C 15.878906 -106.527344 15.53125 -108.929688 14.839844 -109.929688 C 14.335938 -110.660156 13.039062 -111.027344 10.949219 -111.027344 L 1.226562 -111.027344 L 1.226562 -117.265625 L 38.773438 -117.265625 L 86.265625 -23.261719 L 84.199219 -22.21875 L 81.886719 -22.21875 L 81.886719 -102.714844 C 81.886719 -106.527344 81.539062 -108.929688 80.847656 -109.929688 C 80.34375 -110.660156 79.097656 -111.027344 77.117188 -111.027344 L 65.785156 -111.027344 L 65.785156 -117.265625 L 104.0625 -117.265625 L 104.0625 -111.027344 L 93.054688 -111.027344 C 91 -111.027344 89.714844 -110.628906 89.207031 -109.835938 C 88.484375 -108.714844 88.125 -106.179688 88.125 -102.230469 L 88.125 2.3125 L 72.632812 2.3125 L 17.738281 -106.339844 L 19.800781 -107.382812 L 22.117188 -107.382812 L 22.117188 -12.71875 C 22.117188 -8.769531 22.476562 -6.238281 23.199219 -5.117188 C 23.707031 -4.320312 24.9375 -3.925781 26.886719 -3.925781 L 38.378906 -3.925781 L 38.378906 2.3125 L 1.226562 2.3125 Z M 5.855469 0 L 3.542969 0 L 3.542969 -2.3125 L 36.0625 -2.3125 L 36.0625 0 L 33.75 0 L 33.75 -1.609375 L 36.0625 -1.609375 L 36.0625 0.703125 L 26.886719 0.703125 C 23.253906 0.703125 20.726562 -0.402344 19.304688 -2.613281 C 18.09375 -4.496094 17.488281 -7.863281 17.488281 -12.71875 L 17.488281 -107.382812 L 21.867188 -108.425781 L 76.125 -1.042969 L 74.058594 0 L 74.058594 -2.3125 L 85.808594 -2.3125 L 85.808594 0 L 83.496094 0 L 83.496094 -102.230469 C 83.496094 -107.085938 84.101562 -110.453125 85.3125 -112.339844 C 86.734375 -114.550781 89.316406 -115.65625 93.054688 -115.65625 L 101.75 -115.65625 L 101.75 -113.339844 L 99.433594 -113.339844 L 99.433594 -114.949219 L 101.75 -114.949219 L 101.75 -112.636719 L 68.101562 -112.636719 L 68.101562 -114.949219 L 70.414062 -114.949219 L 70.414062 -113.339844 L 68.101562 -113.339844 L 68.101562 -115.65625 L 77.117188 -115.65625 C 80.714844 -115.65625 83.226562 -114.625 84.652344 -112.566406 C 85.894531 -110.773438 86.515625 -107.488281 86.515625 -102.714844 L 86.515625 -22.21875 L 82.132812 -21.171875 L 35.285156 -113.90625 L 37.351562 -114.949219 L 37.351562 -112.636719 L 3.542969 -112.636719 L 3.542969 -114.949219 L 5.855469 -114.949219 L 5.855469 -113.339844 L 3.542969 -113.339844 L 3.542969 -115.65625 L 10.949219 -115.65625 C 14.652344 -115.65625 17.21875 -114.625 18.644531 -112.566406 C 19.886719 -110.773438 20.507812 -107.488281 20.507812 -102.714844 L 20.507812 -12.71875 C 20.507812 -7.804688 19.789062 -4.390625 18.351562 -2.476562 C 16.761719 -0.355469 13.972656 0.703125 9.980469 0.703125 L 3.542969 0.703125 L 3.542969 -1.609375 L 5.855469 -1.609375 Z M 5.855469 0 "/></g></g></g><g fill="#535353" fill-opacity="1"><g transform="translate(602.942411, 812.24991)"><g><path d="M 52.164062 3.925781 C 41.5625 3.925781 32.730469 1.304688 25.667969 -3.9375 C 18.644531 -9.148438 13.414062 -16.425781 9.984375 -25.765625 C 6.613281 -34.933594 4.929688 -45.609375 4.929688 -57.796875 C 4.929688 -70.203125 6.617188 -80.9375 9.984375 -89.996094 C 13.421875 -99.238281 18.660156 -106.386719 25.699219 -111.4375 C 32.753906 -116.503906 41.628906 -119.035156 52.324219 -119.035156 C 67.492188 -119.035156 79.117188 -113.484375 87.199219 -102.386719 C 95.113281 -91.515625 99.074219 -76.597656 99.074219 -57.636719 C 99.074219 -45.324219 97.273438 -34.601562 93.679688 -25.472656 C 90.027344 -16.203125 84.695312 -8.996094 77.679688 -3.847656 C 70.617188 1.332031 62.113281 3.925781 52.164062 3.925781 Z M 52.164062 -0.703125 C 61.101562 -0.703125 68.695312 -2.996094 74.941406 -7.582031 C 81.238281 -12.199219 86.046875 -18.730469 89.371094 -27.171875 C 92.753906 -35.753906 94.445312 -45.90625 94.445312 -57.636719 C 94.445312 -75.59375 90.78125 -89.601562 83.457031 -99.660156 C 76.296875 -109.492188 65.921875 -114.40625 52.324219 -114.40625 C 42.625 -114.40625 34.648438 -112.164062 28.398438 -107.675781 C 22.125 -103.175781 17.433594 -96.746094 14.324219 -88.382812 C 11.148438 -79.84375 9.558594 -69.648438 9.558594 -57.796875 C 9.558594 -46.15625 11.148438 -36.011719 14.328125 -27.363281 C 17.441406 -18.886719 22.140625 -12.316406 28.425781 -7.65625 C 34.671875 -3.019531 42.582031 -0.703125 52.164062 -0.703125 Z M 52.164062 -2.3125 C 56.847656 -2.3125 60.597656 -3.859375 63.410156 -6.953125 C 66.382812 -10.214844 68.554688 -15.835938 69.925781 -23.816406 C 71.351562 -32.113281 72.066406 -43.386719 72.066406 -57.636719 C 72.066406 -71.890625 71.378906 -83.167969 70.003906 -91.46875 C 68.683594 -99.445312 66.566406 -105.035156 63.652344 -108.242188 C 60.890625 -111.277344 57.113281 -112.796875 52.324219 -112.796875 C 47.410156 -112.796875 43.519531 -111.269531 40.648438 -108.214844 C 37.636719 -105.011719 35.449219 -99.425781 34.078125 -91.457031 C 32.652344 -83.160156 31.9375 -71.886719 31.9375 -57.636719 C 31.9375 -43.390625 32.675781 -32.152344 34.15625 -23.914062 C 35.582031 -15.972656 37.78125 -10.34375 40.765625 -7.019531 C 43.578125 -3.882812 47.378906 -2.3125 52.164062 -2.3125 Z M 52.164062 2.3125 C 46 2.3125 41.050781 0.234375 37.320312 -3.929688 C 33.753906 -7.902344 31.179688 -14.292969 29.597656 -23.097656 C 28.070312 -31.601562 27.308594 -43.117188 27.308594 -57.636719 C 27.308594 -72.148438 28.042969 -83.683594 29.515625 -92.238281 C 31.042969 -101.121094 33.628906 -107.503906 37.273438 -111.382812 C 41.058594 -115.410156 46.074219 -117.425781 52.324219 -117.425781 C 58.480469 -117.425781 63.398438 -115.402344 67.078125 -111.355469 C 70.601562 -107.476562 73.101562 -101.101562 74.570312 -92.226562 C 75.984375 -83.675781 76.695312 -72.144531 76.695312 -57.636719 C 76.695312 -43.121094 75.957031 -31.585938 74.488281 -23.03125 C 72.960938 -14.164062 70.410156 -7.765625 66.832031 -3.835938 C 63.101562 0.265625 58.210938 2.3125 52.164062 2.3125 Z M 52.164062 2.3125 "/></g></g></g><g fill="#535353" fill-opacity="1"><g transform="translate(703.723491, 812.24991)"><g><path d="M 36.082031 0.601562 L 7.585938 -105.332031 C 6.945312 -107.886719 6.25 -109.488281 5.496094 -110.132812 C 4.804688 -110.730469 3.5625 -111.027344 1.769531 -111.027344 L -2.3125 -111.027344 L -2.3125 -117.265625 L 45.460938 -117.265625 L 45.460938 -111.027344 L 37.351562 -111.027344 C 36.269531 -111.027344 35.402344 -110.960938 34.746094 -110.828125 C 34.335938 -110.746094 34.097656 -110.675781 34.027344 -110.617188 C 33.816406 -110.433594 33.707031 -109.949219 33.707031 -109.15625 C 33.707031 -107.089844 34.277344 -103.789062 35.410156 -99.25 L 49.097656 -43.699219 L 50.792969 -36.515625 C 51.492188 -33.546875 52.195312 -30.417969 52.894531 -27.128906 L 54.90625 -17.878906 C 55.554688 -14.972656 56.039062 -12.707031 56.363281 -11.078125 L 54.09375 -10.625 L 51.828125 -11.09375 C 52.480469 -14.242188 53.15625 -17.199219 53.863281 -19.972656 L 56.117188 -28.902344 L 59.09375 -40.808594 L 71.808594 -92.960938 C 72.871094 -97.207031 73.613281 -100.539062 74.03125 -102.949219 C 74.4375 -105.289062 74.640625 -107.25 74.640625 -108.832031 C 74.640625 -109.632812 74.453125 -110.136719 74.078125 -110.34375 C 73.242188 -110.796875 71.304688 -111.027344 68.261719 -111.027344 L 61.441406 -111.027344 L 61.441406 -117.265625 L 94.242188 -117.265625 L 94.242188 -111.027344 L 88.546875 -111.027344 C 86.082031 -111.027344 84.390625 -110.660156 83.472656 -109.921875 C 82.539062 -109.175781 81.757812 -107.550781 81.132812 -105.050781 L 54.945312 2.3125 L 36.542969 2.3125 Z M 40.550781 -0.601562 L 38.316406 0 L 38.316406 -2.3125 L 53.128906 -2.3125 L 53.128906 0 L 50.878906 -0.546875 L 76.640625 -106.175781 C 77.519531 -109.683594 78.832031 -112.140625 80.582031 -113.539062 C 82.34375 -114.949219 85 -115.65625 88.546875 -115.65625 L 91.929688 -115.65625 L 91.929688 -113.339844 L 89.613281 -113.339844 L 89.613281 -114.949219 L 91.929688 -114.949219 L 91.929688 -112.636719 L 63.753906 -112.636719 L 63.753906 -114.949219 L 66.066406 -114.949219 L 66.066406 -113.339844 L 63.753906 -113.339844 L 63.753906 -115.65625 L 68.261719 -115.65625 C 72.089844 -115.65625 74.765625 -115.238281 76.292969 -114.40625 C 78.277344 -113.324219 79.269531 -111.464844 79.269531 -108.832031 C 79.269531 -106.980469 79.042969 -104.757812 78.589844 -102.15625 C 78.152344 -99.632812 77.390625 -96.203125 76.304688 -91.863281 L 63.585938 -39.6875 L 60.605469 -27.769531 L 58.347656 -18.828125 C 57.660156 -16.125 56.996094 -13.234375 56.359375 -10.15625 L 51.824219 -10.171875 C 51.507812 -11.765625 51.027344 -14.007812 50.382812 -16.894531 L 48.371094 -26.164062 C 47.675781 -29.417969 46.980469 -32.515625 46.289062 -35.449219 L 44.601562 -42.59375 L 30.917969 -98.128906 C 29.691406 -103.035156 29.078125 -106.710938 29.078125 -109.15625 C 29.078125 -111.367188 29.726562 -113.027344 31.015625 -114.132812 C 32.199219 -115.148438 34.3125 -115.65625 37.351562 -115.65625 L 43.148438 -115.65625 L 43.148438 -113.339844 L 40.832031 -113.339844 L 40.832031 -114.949219 L 43.148438 -114.949219 L 43.148438 -112.636719 L 0 -112.636719 L 0 -114.949219 L 2.3125 -114.949219 L 2.3125 -113.339844 L 0 -113.339844 L 0 -115.65625 L 1.769531 -115.65625 C 4.703125 -115.65625 6.949219 -114.984375 8.507812 -113.648438 C 10.011719 -112.363281 11.191406 -109.992188 12.054688 -106.535156 Z M 40.550781 -0.601562 "/></g></g></g><g fill="#535353" fill-opacity="1"><g transform="translate(792.430119, 812.24991)"><g><path d="M -1.671875 0 L -1.671875 -3.925781 L 5.636719 -3.925781 C 7.9375 -3.925781 9.582031 -4.492188 10.570312 -5.625 C 11.789062 -7.023438 12.992188 -9.910156 14.1875 -14.292969 L 41.527344 -117.265625 L 61.640625 -117.265625 L 91.738281 -11.097656 C 92.597656 -8.140625 93.511719 -6.15625 94.484375 -5.144531 C 95.261719 -4.332031 96.503906 -3.925781 98.207031 -3.925781 L 101.808594 -3.925781 L 101.808594 2.3125 L 53.550781 2.3125 L 53.550781 -3.925781 L 61.984375 -3.925781 C 63.785156 -3.925781 64.886719 -4.136719 65.289062 -4.566406 C 65.726562 -5.03125 65.949219 -5.816406 65.949219 -6.921875 C 65.949219 -7.8125 65.78125 -8.945312 65.449219 -10.324219 C 65.082031 -11.847656 64.6875 -13.347656 64.265625 -14.820312 L 64.253906 -14.859375 L 57.644531 -41.460938 L 59.890625 -42.019531 L 59.890625 -39.707031 L 25.597656 -39.707031 L 25.597656 -42.019531 L 27.835938 -41.433594 L 21.558594 -17.445312 C 20.921875 -15.113281 20.394531 -12.949219 19.972656 -10.953125 C 19.578125 -9.070312 19.378906 -7.621094 19.378906 -6.601562 C 19.378906 -5.503906 19.554688 -4.8125 19.90625 -4.523438 C 20.390625 -4.125 21.484375 -3.925781 23.183594 -3.925781 L 33.871094 -3.925781 L 33.871094 2.3125 L -1.671875 2.3125 Z M 2.957031 0 L 0.644531 0 L 0.644531 -2.3125 L 31.554688 -2.3125 L 31.554688 0 L 29.242188 0 L 29.242188 -1.609375 L 31.554688 -1.609375 L 31.554688 0.703125 L 23.183594 0.703125 C 20.375 0.703125 18.300781 0.152344 16.960938 -0.949219 C 15.488281 -2.164062 14.75 -4.046875 14.75 -6.601562 C 14.75 -7.941406 14.980469 -9.710938 15.445312 -11.90625 C 15.882812 -13.992188 16.429688 -16.226562 17.082031 -18.617188 L 23.8125 -44.335938 L 61.699219 -44.335938 L 68.738281 -16.011719 L 66.492188 -15.457031 L 68.714844 -16.089844 C 69.15625 -14.558594 69.566406 -12.996094 69.949219 -11.410156 C 70.367188 -9.675781 70.578125 -8.179688 70.578125 -6.921875 C 70.578125 -4.59375 69.9375 -2.75 68.660156 -1.390625 C 67.34375 0.00390625 65.117188 0.703125 61.984375 0.703125 L 55.867188 0.703125 L 55.867188 -1.609375 L 58.179688 -1.609375 L 58.179688 0 L 55.867188 0 L 55.867188 -2.3125 L 99.496094 -2.3125 L 99.496094 0 L 97.179688 0 L 97.179688 -1.609375 L 99.496094 -1.609375 L 99.496094 0.703125 L 98.207031 0.703125 C 95.1875 0.703125 92.832031 -0.175781 91.144531 -1.941406 C 89.644531 -3.503906 88.359375 -6.132812 87.285156 -9.832031 L 57.664062 -114.320312 L 59.890625 -114.949219 L 59.890625 -112.636719 L 43.308594 -112.636719 L 43.308594 -114.949219 L 45.542969 -114.355469 L 18.652344 -13.074219 C 17.273438 -8.011719 15.742188 -4.515625 14.0625 -2.585938 C 12.152344 -0.390625 9.34375 0.703125 5.636719 0.703125 L 0.644531 0.703125 L 0.644531 -1.609375 L 2.957031 -1.609375 Z M 26.082031 -45.945312 L 59.40625 -45.945312 L 59.40625 -43.628906 L 57.164062 -43.066406 L 45.894531 -87.984375 C 44.925781 -91.957031 44.042969 -95.523438 43.238281 -98.683594 C 42.425781 -101.882812 41.636719 -105.324219 40.878906 -109.011719 L 43.148438 -109.476562 L 45.417969 -109.035156 C 44.765625 -105.667969 44.085938 -102.570312 43.378906 -99.738281 C 42.679688 -96.9375 41.898438 -93.917969 41.035156 -90.6875 L 28.316406 -43.03125 L 26.082031 -43.628906 Z M 23.066406 -41.316406 L 36.5625 -91.878906 C 37.417969 -95.089844 38.195312 -98.082031 38.890625 -100.859375 C 39.578125 -103.613281 40.238281 -106.628906 40.875 -109.917969 L 45.414062 -109.941406 C 46.15625 -106.328125 46.929688 -102.957031 47.722656 -99.824219 C 48.53125 -96.648438 49.417969 -93.078125 50.382812 -89.109375 L 62.375 -41.316406 Z M 23.066406 -41.316406 "/></g></g></g><g fill="#535353" fill-opacity="1"><g transform="translate(888.703395, 812.24991)"><g><path d="M 17.003906 0 L 17.003906 -3.925781 L 23.988281 -3.925781 C 26.527344 -3.925781 28.128906 -4.382812 28.796875 -5.300781 C 29.628906 -6.453125 30.046875 -9.03125 30.046875 -13.039062 L 30.046875 -113.339844 L 32.359375 -113.339844 L 32.359375 -111.027344 L 25.113281 -111.027344 C 20.035156 -111.027344 16.101562 -110.488281 13.308594 -109.410156 C 10.820312 -108.449219 9.011719 -106.796875 7.882812 -104.449219 C 6.617188 -101.820312 5.832031 -98.136719 5.53125 -93.390625 L 4.917969 -83.175781 L -1.277344 -83.175781 L 0.0273438 -117.265625 L 86.265625 -117.265625 L 87.570312 -83.175781 L 81.375 -83.175781 L 80.761719 -93.398438 C 80.460938 -98.136719 79.675781 -101.820312 78.414062 -104.449219 C 77.28125 -106.796875 75.472656 -108.449219 72.984375 -109.410156 C 70.191406 -110.488281 66.257812 -111.027344 61.179688 -111.027344 L 54.09375 -111.027344 L 54.09375 -113.339844 L 56.410156 -113.339844 L 56.410156 -13.039062 C 56.410156 -9.011719 56.808594 -6.417969 57.609375 -5.257812 C 58.222656 -4.367188 59.839844 -3.925781 62.464844 -3.925781 L 69.289062 -3.925781 L 69.289062 2.3125 L 17.003906 2.3125 Z M 21.632812 0 L 19.320312 0 L 19.320312 -2.3125 L 66.972656 -2.3125 L 66.972656 0 L 64.660156 0 L 64.660156 -1.609375 L 66.972656 -1.609375 L 66.972656 0.703125 L 62.464844 0.703125 C 58.222656 0.703125 55.332031 -0.40625 53.800781 -2.628906 C 52.453125 -4.582031 51.78125 -8.050781 51.78125 -13.039062 L 51.78125 -115.65625 L 61.179688 -115.65625 C 66.832031 -115.65625 71.324219 -115.011719 74.648438 -113.730469 C 78.277344 -112.328125 80.921875 -109.902344 82.582031 -106.457031 C 84.109375 -103.285156 85.042969 -99.027344 85.382812 -93.675781 L 85.867188 -85.625 L 83.554688 -85.488281 L 83.554688 -87.800781 L 85.167969 -87.800781 L 85.167969 -85.488281 L 82.855469 -85.398438 L 81.726562 -114.863281 L 84.039062 -114.949219 L 84.039062 -112.636719 L 2.253906 -112.636719 L 2.253906 -114.949219 L 4.566406 -114.863281 L 3.441406 -85.398438 L 1.128906 -85.488281 L 1.128906 -87.800781 L 2.738281 -87.800781 L 2.738281 -85.488281 L 0.425781 -85.625 L 0.910156 -93.683594 C 1.25 -99.03125 2.183594 -103.285156 3.710938 -106.457031 C 5.371094 -109.902344 8.015625 -112.328125 11.644531 -113.730469 C 14.972656 -115.011719 19.460938 -115.65625 25.113281 -115.65625 L 34.675781 -115.65625 L 34.675781 -13.039062 C 34.675781 -8.03125 33.964844 -4.546875 32.542969 -2.585938 C 30.953125 -0.394531 28.101562 0.703125 23.988281 0.703125 L 19.320312 0.703125 L 19.320312 -1.609375 L 21.632812 -1.609375 Z M 21.632812 0 "/></g></g></g><g fill="#535353" fill-opacity="1"><g transform="translate(971.775318, 812.24991)"><g><path d="M 1.226562 0 L 1.226562 -3.925781 L 7.246094 -3.925781 C 9.375 -3.925781 10.980469 -4.367188 12.054688 -5.25 C 12.414062 -5.542969 12.71875 -6.191406 12.96875 -7.1875 C 13.296875 -8.492188 13.464844 -10.226562 13.464844 -12.398438 L 13.464844 -101.910156 C 13.464844 -104.257812 13.300781 -106.136719 12.976562 -107.550781 C 12.726562 -108.652344 12.421875 -109.363281 12.066406 -109.679688 C 11.054688 -110.578125 9.449219 -111.027344 7.246094 -111.027344 L 1.226562 -111.027344 L 1.226562 -117.265625 L 79.03125 -117.265625 L 80.152344 -83.816406 L 73.996094 -83.816406 L 73.359375 -92.730469 C 72.867188 -99.839844 71.214844 -104.660156 68.402344 -107.195312 C 65.570312 -109.75 60.53125 -111.027344 53.289062 -111.027344 L 37.027344 -111.027344 L 37.027344 -113.339844 L 39.34375 -113.339844 L 39.34375 -60.855469 L 37.027344 -60.855469 L 37.027344 -63.171875 L 73.152344 -63.171875 L 73.152344 -56.933594 L 37.027344 -56.933594 L 37.027344 -59.246094 L 39.34375 -59.246094 L 39.34375 -1.609375 L 37.027344 -1.609375 L 37.027344 -3.925781 L 57.796875 -3.925781 C 64.933594 -3.925781 69.890625 -5.175781 72.671875 -7.675781 C 75.4375 -10.167969 77.117188 -14.8125 77.707031 -21.613281 L 78.328125 -31.132812 L 84.5 -31.132812 L 83.378906 2.3125 L 1.226562 2.3125 Z M 5.855469 0 L 3.542969 0 L 3.542969 -2.3125 L 81.140625 -2.3125 L 81.140625 0 L 78.828125 -0.078125 L 79.792969 -28.894531 L 82.109375 -28.816406 L 82.109375 -26.503906 L 80.496094 -26.503906 L 80.496094 -28.816406 L 82.808594 -28.667969 L 82.320312 -21.210938 C 81.625 -13.199219 79.4375 -7.542969 75.765625 -4.238281 C 72.105469 -0.941406 66.117188 0.703125 57.796875 0.703125 L 34.714844 0.703125 L 34.714844 -61.558594 L 70.835938 -61.558594 L 70.835938 -59.246094 L 68.523438 -59.246094 L 68.523438 -60.855469 L 70.835938 -60.855469 L 70.835938 -58.542969 L 34.714844 -58.542969 L 34.714844 -115.65625 L 53.289062 -115.65625 C 61.71875 -115.65625 67.789062 -113.980469 71.503906 -110.632812 C 75.238281 -107.261719 77.394531 -101.40625 77.976562 -93.058594 L 78.460938 -86.296875 L 76.152344 -86.132812 L 76.152344 -88.445312 L 77.761719 -88.445312 L 77.761719 -86.132812 L 75.449219 -86.054688 L 74.480469 -114.871094 L 76.792969 -114.949219 L 76.792969 -112.636719 L 3.542969 -112.636719 L 3.542969 -114.949219 L 5.855469 -114.949219 L 5.855469 -113.339844 L 3.542969 -113.339844 L 3.542969 -115.65625 L 7.246094 -115.65625 C 10.621094 -115.65625 13.253906 -114.816406 15.140625 -113.136719 C 17.109375 -111.390625 18.09375 -107.648438 18.09375 -101.910156 L 18.09375 -12.398438 C 18.09375 -6.945312 17.058594 -3.371094 14.992188 -1.671875 C 13.0625 -0.0898438 10.480469 0.703125 7.246094 0.703125 L 3.542969 0.703125 L 3.542969 -1.609375 L 5.855469 -1.609375 Z M 5.855469 0 "/></g></g></g><g fill="#ffffff" fill-opacity="1"><g transform="translate(352.116711, 812.24991)"><g><path d="M 3.546875 0 L 3.546875 -1.609375 L 9.828125 -1.609375 C 12.296875 -1.609375 13.90625 -2.28125 14.65625 -3.625 C 15.40625 -4.96875 15.78125 -7.625 15.78125 -11.59375 L 15.78125 -102.875 C 15.78125 -107.0625 15.40625 -109.851562 14.65625 -111.25 C 13.90625 -112.644531 12.296875 -113.34375 9.828125 -113.34375 L 3.546875 -113.34375 L 3.546875 -114.953125 L 49.75 -114.953125 L 49.75 -113.34375 L 43.3125 -113.34375 C 40.84375 -113.34375 39.203125 -112.644531 38.390625 -111.25 C 37.585938 -109.851562 37.1875 -107.0625 37.1875 -102.875 L 37.1875 -11.59375 C 37.1875 -7.625 37.585938 -4.96875 38.390625 -3.625 C 39.203125 -2.28125 40.84375 -1.609375 43.3125 -1.609375 L 49.75 -1.609375 L 49.75 0 Z M 3.546875 0 "/></g></g></g><g fill="#ffffff" fill-opacity="1"><g transform="translate(402.02423, 812.24991)"><g><path d="M 3.546875 0 L 3.546875 -1.609375 L 9.984375 -1.609375 C 13.203125 -1.609375 15.375 -2.359375 16.5 -3.859375 C 17.625 -5.367188 18.1875 -8.320312 18.1875 -12.71875 L 18.1875 -102.71875 C 18.1875 -107.007812 17.703125 -109.851562 16.734375 -111.25 C 15.773438 -112.644531 13.847656 -113.34375 10.953125 -113.34375 L 3.546875 -113.34375 L 3.546875 -114.953125 L 37.359375 -114.953125 L 84.203125 -22.21875 L 84.203125 -102.71875 C 84.203125 -107.007812 83.71875 -109.851562 82.75 -111.25 C 81.789062 -112.644531 79.914062 -113.34375 77.125 -113.34375 L 68.109375 -113.34375 L 68.109375 -114.953125 L 101.75 -114.953125 L 101.75 -113.34375 L 93.0625 -113.34375 C 90.164062 -113.34375 88.234375 -112.59375 87.265625 -111.09375 C 86.296875 -109.59375 85.8125 -106.640625 85.8125 -102.234375 L 85.8125 0 L 74.0625 0 L 19.796875 -107.390625 L 19.796875 -12.71875 C 19.796875 -8.320312 20.28125 -5.367188 21.25 -3.859375 C 22.21875 -2.359375 24.097656 -1.609375 26.890625 -1.609375 L 36.0625 -1.609375 L 36.0625 0 Z M 3.546875 0 "/></g></g></g><g fill="#ffffff" fill-opacity="1"><g transform="translate(502.483321, 812.24991)"><g><path d="M 3.546875 0 L 3.546875 -1.609375 L 9.984375 -1.609375 C 13.203125 -1.609375 15.375 -2.359375 16.5 -3.859375 C 17.625 -5.367188 18.1875 -8.320312 18.1875 -12.71875 L 18.1875 -102.71875 C 18.1875 -107.007812 17.703125 -109.851562 16.734375 -111.25 C 15.773438 -112.644531 13.847656 -113.34375 10.953125 -113.34375 L 3.546875 -113.34375 L 3.546875 -114.953125 L 37.359375 -114.953125 L 84.203125 -22.21875 L 84.203125 -102.71875 C 84.203125 -107.007812 83.71875 -109.851562 82.75 -111.25 C 81.789062 -112.644531 79.914062 -113.34375 77.125 -113.34375 L 68.109375 -113.34375 L 68.109375 -114.953125 L 101.75 -114.953125 L 101.75 -113.34375 L 93.0625 -113.34375 C 90.164062 -113.34375 88.234375 -112.59375 87.265625 -111.09375 C 86.296875 -109.59375 85.8125 -106.640625 85.8125 -102.234375 L 85.8125 0 L 74.0625 0 L 19.796875 -107.390625 L 19.796875 -12.71875 C 19.796875 -8.320312 20.28125 -5.367188 21.25 -3.859375 C 22.21875 -2.359375 24.097656 -1.609375 26.890625 -1.609375 L 36.0625 -1.609375 L 36.0625 0 Z M 3.546875 0 "/></g></g></g><g fill="#ffffff" fill-opacity="1"><g transform="translate(602.942411, 812.24991)"><g><path d="M 52.15625 1.609375 C 42.070312 1.609375 33.703125 -0.859375 27.046875 -5.796875 C 20.390625 -10.734375 15.425781 -17.65625 12.15625 -26.5625 C 8.882812 -35.46875 7.25 -45.878906 7.25 -57.796875 C 7.25 -69.921875 8.882812 -80.382812 12.15625 -89.1875 C 15.425781 -97.988281 20.390625 -104.773438 27.046875 -109.546875 C 33.703125 -114.328125 42.128906 -116.71875 52.328125 -116.71875 C 66.710938 -116.71875 77.710938 -111.484375 85.328125 -101.015625 C 92.953125 -90.554688 96.765625 -76.097656 96.765625 -57.640625 C 96.765625 -45.617188 95.019531 -35.179688 91.53125 -26.328125 C 88.039062 -17.472656 82.96875 -10.601562 76.3125 -5.71875 C 69.65625 -0.832031 61.601562 1.609375 52.15625 1.609375 Z M 52.15625 0 C 57.53125 0 61.851562 -1.796875 65.125 -5.390625 C 68.394531 -8.984375 70.753906 -14.992188 72.203125 -23.421875 C 73.648438 -31.847656 74.375 -43.253906 74.375 -57.640625 C 74.375 -72.023438 73.675781 -83.425781 72.28125 -91.84375 C 70.894531 -100.269531 68.585938 -106.253906 65.359375 -109.796875 C 62.140625 -113.335938 57.796875 -115.109375 52.328125 -115.109375 C 46.742188 -115.109375 42.285156 -113.335938 38.953125 -109.796875 C 35.628906 -106.253906 33.242188 -100.269531 31.796875 -91.84375 C 30.347656 -83.425781 29.625 -72.023438 29.625 -57.640625 C 29.625 -43.253906 30.375 -31.875 31.875 -23.5 C 33.375 -15.132812 35.757812 -9.125 39.03125 -5.46875 C 42.3125 -1.820312 46.6875 0 52.15625 0 Z M 52.15625 0 "/></g></g></g><g fill="#ffffff" fill-opacity="1"><g transform="translate(703.723491, 812.24991)"><g><path d="M 38.3125 0 L 9.828125 -105.9375 C 9.066406 -108.945312 8.125 -110.929688 7 -111.890625 C 5.875 -112.859375 4.128906 -113.34375 1.765625 -113.34375 L 0 -113.34375 L 0 -114.953125 L 43.140625 -114.953125 L 43.140625 -113.34375 L 37.359375 -113.34375 C 34.890625 -113.34375 33.273438 -113.019531 32.515625 -112.375 C 31.765625 -111.726562 31.390625 -110.65625 31.390625 -109.15625 C 31.390625 -106.90625 31.984375 -103.414062 33.171875 -98.6875 L 46.84375 -43.140625 C 47.28125 -41.316406 47.847656 -38.929688 48.546875 -35.984375 C 49.242188 -33.035156 49.941406 -29.921875 50.640625 -26.640625 C 51.335938 -23.367188 52.003906 -20.285156 52.640625 -17.390625 C 53.285156 -14.492188 53.769531 -12.238281 54.09375 -10.625 C 54.738281 -13.738281 55.410156 -16.660156 56.109375 -19.390625 C 56.804688 -22.128906 57.554688 -25.109375 58.359375 -28.328125 C 59.160156 -31.554688 60.15625 -35.53125 61.34375 -40.25 L 74.0625 -92.40625 C 75.132812 -96.707031 75.882812 -100.09375 76.3125 -102.5625 C 76.738281 -105.03125 76.953125 -107.125 76.953125 -108.84375 C 76.953125 -110.550781 76.363281 -111.726562 75.1875 -112.375 C 74.007812 -113.019531 71.703125 -113.34375 68.265625 -113.34375 L 63.75 -113.34375 L 63.75 -114.953125 L 91.9375 -114.953125 L 91.9375 -113.34375 L 88.546875 -113.34375 C 85.546875 -113.34375 83.375 -112.804688 82.03125 -111.734375 C 80.6875 -110.660156 79.640625 -108.617188 78.890625 -105.609375 L 53.125 0 Z M 38.3125 0 "/></g></g></g><g fill="#ffffff" fill-opacity="1"><g transform="translate(792.430119, 812.24991)"><g><path d="M 0.640625 0 L 0.640625 -1.609375 L 5.640625 -1.609375 C 8.640625 -1.609375 10.863281 -2.4375 12.3125 -4.09375 C 13.757812 -5.757812 15.128906 -8.957031 16.421875 -13.6875 L 43.3125 -114.953125 L 59.890625 -114.953125 L 89.515625 -10.46875 C 90.484375 -7.132812 91.582031 -4.820312 92.8125 -3.53125 C 94.050781 -2.25 95.847656 -1.609375 98.203125 -1.609375 L 99.5 -1.609375 L 99.5 0 L 55.859375 0 L 55.859375 -1.609375 L 61.984375 -1.609375 C 64.453125 -1.609375 66.113281 -2.0625 66.96875 -2.96875 C 67.832031 -3.882812 68.265625 -5.203125 68.265625 -6.921875 C 68.265625 -7.992188 68.078125 -9.304688 67.703125 -10.859375 C 67.328125 -12.421875 66.925781 -13.953125 66.5 -15.453125 L 59.890625 -42.015625 L 25.59375 -42.015625 L 19.3125 -18.03125 C 18.675781 -15.664062 18.140625 -13.460938 17.703125 -11.421875 C 17.273438 -9.390625 17.0625 -7.78125 17.0625 -6.59375 C 17.0625 -4.769531 17.515625 -3.484375 18.421875 -2.734375 C 19.335938 -1.984375 20.925781 -1.609375 23.1875 -1.609375 L 31.5625 -1.609375 L 31.5625 0 Z M 26.078125 -43.625 L 59.40625 -43.625 L 48.140625 -88.546875 C 47.171875 -92.515625 46.285156 -96.082031 45.484375 -99.25 C 44.679688 -102.414062 43.898438 -105.828125 43.140625 -109.484375 C 42.503906 -106.148438 41.835938 -103.085938 41.140625 -100.296875 C 40.441406 -97.503906 39.660156 -94.5 38.796875 -91.28125 Z M 26.078125 -43.625 "/></g></g></g><g fill="#ffffff" fill-opacity="1"><g transform="translate(888.703395, 812.24991)"><g><path d="M 19.3125 0 L 19.3125 -1.609375 L 23.984375 -1.609375 C 27.316406 -1.609375 29.546875 -2.382812 30.671875 -3.9375 C 31.796875 -5.5 32.359375 -8.535156 32.359375 -13.046875 L 32.359375 -113.34375 L 25.109375 -113.34375 C 19.742188 -113.34375 15.53125 -112.75 12.46875 -111.5625 C 9.414062 -110.382812 7.191406 -108.347656 5.796875 -105.453125 C 4.398438 -102.554688 3.539062 -98.585938 3.21875 -93.546875 L 2.734375 -85.484375 L 1.125 -85.484375 L 2.25 -114.953125 L 84.046875 -114.953125 L 85.171875 -85.484375 L 83.5625 -85.484375 L 83.078125 -93.546875 C 82.753906 -98.585938 81.894531 -102.554688 80.5 -105.453125 C 79.101562 -108.347656 76.875 -110.382812 73.8125 -111.5625 C 70.757812 -112.75 66.550781 -113.34375 61.1875 -113.34375 L 54.09375 -113.34375 L 54.09375 -13.046875 C 54.09375 -8.535156 54.628906 -5.5 55.703125 -3.9375 C 56.773438 -2.382812 59.03125 -1.609375 62.46875 -1.609375 L 66.96875 -1.609375 L 66.96875 0 Z M 19.3125 0 "/></g></g></g><g fill="#ffffff" fill-opacity="1"><g transform="translate(971.775318, 812.24991)"><g><path d="M 3.546875 0 L 3.546875 -1.609375 L 7.25 -1.609375 C 9.925781 -1.609375 12.015625 -2.222656 13.515625 -3.453125 C 15.023438 -4.691406 15.78125 -7.671875 15.78125 -12.390625 L 15.78125 -101.90625 C 15.78125 -106.957031 15.054688 -110.125 13.609375 -111.40625 C 12.160156 -112.695312 10.039062 -113.34375 7.25 -113.34375 L 3.546875 -113.34375 L 3.546875 -114.953125 L 76.796875 -114.953125 L 77.765625 -86.140625 L 76.15625 -86.140625 L 75.671875 -92.890625 C 75.128906 -100.617188 73.222656 -105.957031 69.953125 -108.90625 C 66.679688 -111.863281 61.128906 -113.34375 53.296875 -113.34375 L 37.03125 -113.34375 L 37.03125 -60.859375 L 70.84375 -60.859375 L 70.84375 -59.25 L 37.03125 -59.25 L 37.03125 -1.609375 L 57.796875 -1.609375 C 65.523438 -1.609375 71 -3.054688 74.21875 -5.953125 C 77.4375 -8.847656 79.367188 -14 80.015625 -21.40625 L 80.5 -28.8125 L 82.109375 -28.8125 L 81.140625 0 Z M 3.546875 0 "/></g></g></g><g fill="#a6a6a6" fill-opacity="0.4"><g transform="translate(353.972902, 866.800753)"><g><path d="M 19.21875 -21.765625 C 19.101562 -22.960938 18.585938 -23.894531 17.671875 -24.5625 C 16.765625 -25.226562 15.539062 -25.5625 14 -25.5625 C 12.425781 -25.5625 11.210938 -25.238281 10.359375 -24.59375 C 9.515625 -23.945312 9.09375 -23.128906 9.09375 -22.140625 C 9.070312 -21.046875 9.539062 -20.21875 10.5 -19.65625 C 11.46875 -19.101562 12.613281 -18.671875 13.9375 -18.359375 L 16.671875 -17.703125 C 18.441406 -17.304688 20.015625 -16.726562 21.390625 -15.96875 C 22.765625 -15.21875 23.847656 -14.25 24.640625 -13.0625 C 25.429688 -11.875 25.828125 -10.425781 25.828125 -8.71875 C 25.816406 -5.925781 24.769531 -3.703125 22.6875 -2.046875 C 20.601562 -0.390625 17.695312 0.4375 13.96875 0.4375 C 10.257812 0.4375 7.300781 -0.40625 5.09375 -2.09375 C 2.894531 -3.789062 1.753906 -6.289062 1.671875 -9.59375 L 7.921875 -9.59375 C 8.023438 -8.0625 8.625 -6.910156 9.71875 -6.140625 C 10.820312 -5.367188 12.21875 -4.984375 13.90625 -4.984375 C 15.539062 -4.984375 16.847656 -5.328125 17.828125 -6.015625 C 18.804688 -6.710938 19.300781 -7.617188 19.3125 -8.734375 C 19.300781 -9.773438 18.847656 -10.570312 17.953125 -11.125 C 17.054688 -11.6875 15.78125 -12.164062 14.125 -12.5625 L 10.796875 -13.390625 C 8.222656 -14.003906 6.1875 -14.984375 4.6875 -16.328125 C 3.195312 -17.671875 2.457031 -19.46875 2.46875 -21.71875 C 2.457031 -23.5625 2.953125 -25.175781 3.953125 -26.5625 C 4.953125 -27.957031 6.328125 -29.039062 8.078125 -29.8125 C 9.828125 -30.582031 11.816406 -30.96875 14.046875 -30.96875 C 16.316406 -30.96875 18.296875 -30.578125 19.984375 -29.796875 C 21.679688 -29.023438 23.003906 -27.945312 23.953125 -26.5625 C 24.898438 -25.175781 25.390625 -23.578125 25.421875 -21.765625 Z M 19.21875 -21.765625 "/></g></g></g><g fill="#a6a6a6" fill-opacity="0.4"><g transform="translate(387.943758, 866.800753)"><g><path d="M 2.65625 0 L 2.65625 -30.546875 L 9.109375 -30.546875 L 9.109375 -17.9375 L 22.21875 -17.9375 L 22.21875 -30.546875 L 28.671875 -30.546875 L 28.671875 0 L 22.21875 0 L 22.21875 -12.625 L 9.109375 -12.625 L 9.109375 0 Z M 2.65625 0 "/></g></g></g><g fill="#a6a6a6" fill-opacity="0.4"><g transform="translate(425.747687, 866.800753)"><g><path d="M 30.71875 -15.265625 C 30.71875 -11.941406 30.085938 -9.109375 28.828125 -6.765625 C 27.578125 -4.429688 25.875 -2.648438 23.71875 -1.421875 C 21.5625 -0.191406 19.128906 0.421875 16.421875 0.421875 C 13.703125 0.421875 11.265625 -0.191406 9.109375 -1.421875 C 6.953125 -2.660156 5.25 -4.453125 4 -6.796875 C 2.75 -9.140625 2.125 -11.960938 2.125 -15.265625 C 2.125 -18.597656 2.75 -21.429688 4 -23.765625 C 5.25 -26.109375 6.953125 -27.894531 9.109375 -29.125 C 11.265625 -30.351562 13.703125 -30.96875 16.421875 -30.96875 C 19.128906 -30.96875 21.5625 -30.351562 23.71875 -29.125 C 25.875 -27.894531 27.578125 -26.109375 28.828125 -23.765625 C 30.085938 -21.429688 30.71875 -18.597656 30.71875 -15.265625 Z M 24.171875 -15.265625 C 24.171875 -18.515625 23.460938 -20.988281 22.046875 -22.6875 C 20.640625 -24.394531 18.765625 -25.25 16.421875 -25.25 C 14.078125 -25.25 12.195312 -24.394531 10.78125 -22.6875 C 9.375 -20.988281 8.671875 -18.515625 8.671875 -15.265625 C 8.671875 -12.035156 9.375 -9.566406 10.78125 -7.859375 C 12.195312 -6.148438 14.078125 -5.296875 16.421875 -5.296875 C 18.765625 -5.296875 20.640625 -6.148438 22.046875 -7.859375 C 23.460938 -9.566406 24.171875 -12.035156 24.171875 -15.265625 Z M 24.171875 -15.265625 "/></g></g></g><g fill="#a6a6a6" fill-opacity="0.4"><g transform="translate(465.058002, 866.800753)"><g><path d="M 9.53125 0 L 0.796875 -30.546875 L 7.84375 -30.546875 L 12.90625 -9.328125 L 13.15625 -9.328125 L 18.734375 -30.546875 L 24.765625 -30.546875 L 30.34375 -9.28125 L 30.609375 -9.28125 L 35.65625 -30.546875 L 42.71875 -30.546875 L 33.96875 0 L 27.6875 0 L 21.859375 -19.96875 L 21.625 -19.96875 L 15.828125 0 Z M 9.53125 0 "/></g></g></g><g fill="#a6a6a6" fill-opacity="0.4"><g transform="translate(515.032321, 866.800753)"><g><path d="M 2.65625 0 L 2.65625 -30.546875 L 14.703125 -30.546875 C 18.171875 -30.546875 20.863281 -29.640625 22.78125 -27.828125 C 24.695312 -26.015625 25.65625 -23.59375 25.65625 -20.5625 C 25.65625 -18.476562 25.1875 -16.691406 24.25 -15.203125 C 23.320312 -13.722656 21.988281 -12.613281 20.25 -11.875 L 26.734375 0 L 19.609375 0 L 13.828125 -10.828125 L 9.109375 -10.828125 L 9.109375 0 Z M 9.109375 -16.015625 L 13.5 -16.015625 C 17.164062 -16.015625 19 -17.53125 19 -20.5625 C 19 -23.695312 17.15625 -25.265625 13.46875 -25.265625 L 9.109375 -25.265625 Z M 9.109375 -16.015625 "/></g></g></g><g fill="#a6a6a6" fill-opacity="0.4"><g transform="translate(549.062835, 866.800753)"><g><path d="M 30.71875 -15.265625 C 30.71875 -11.941406 30.085938 -9.109375 28.828125 -6.765625 C 27.578125 -4.429688 25.875 -2.648438 23.71875 -1.421875 C 21.5625 -0.191406 19.128906 0.421875 16.421875 0.421875 C 13.703125 0.421875 11.265625 -0.191406 9.109375 -1.421875 C 6.953125 -2.660156 5.25 -4.453125 4 -6.796875 C 2.75 -9.140625 2.125 -11.960938 2.125 -15.265625 C 2.125 -18.597656 2.75 -21.429688 4 -23.765625 C 5.25 -26.109375 6.953125 -27.894531 9.109375 -29.125 C 11.265625 -30.351562 13.703125 -30.96875 16.421875 -30.96875 C 19.128906 -30.96875 21.5625 -30.351562 23.71875 -29.125 C 25.875 -27.894531 27.578125 -26.109375 28.828125 -23.765625 C 30.085938 -21.429688 30.71875 -18.597656 30.71875 -15.265625 Z M 24.171875 -15.265625 C 24.171875 -18.515625 23.460938 -20.988281 22.046875 -22.6875 C 20.640625 -24.394531 18.765625 -25.25 16.421875 -25.25 C 14.078125 -25.25 12.195312 -24.394531 10.78125 -22.6875 C 9.375 -20.988281 8.671875 -18.515625 8.671875 -15.265625 C 8.671875 -12.035156 9.375 -9.566406 10.78125 -7.859375 C 12.195312 -6.148438 14.078125 -5.296875 16.421875 -5.296875 C 18.765625 -5.296875 20.640625 -6.148438 22.046875 -7.859375 C 23.460938 -9.566406 24.171875 -12.035156 24.171875 -15.265625 Z M 24.171875 -15.265625 "/></g></g></g><g fill="#a6a6a6" fill-opacity="0.4"><g transform="translate(588.373149, 866.800753)"><g><path d="M 30.71875 -15.265625 C 30.71875 -11.941406 30.085938 -9.109375 28.828125 -6.765625 C 27.578125 -4.429688 25.875 -2.648438 23.71875 -1.421875 C 21.5625 -0.191406 19.128906 0.421875 16.421875 0.421875 C 13.703125 0.421875 11.265625 -0.191406 9.109375 -1.421875 C 6.953125 -2.660156 5.25 -4.453125 4 -6.796875 C 2.75 -9.140625 2.125 -11.960938 2.125 -15.265625 C 2.125 -18.597656 2.75 -21.429688 4 -23.765625 C 5.25 -26.109375 6.953125 -27.894531 9.109375 -29.125 C 11.265625 -30.351562 13.703125 -30.96875 16.421875 -30.96875 C 19.128906 -30.96875 21.5625 -30.351562 23.71875 -29.125 C 25.875 -27.894531 27.578125 -26.109375 28.828125 -23.765625 C 30.085938 -21.429688 30.71875 -18.597656 30.71875 -15.265625 Z M 24.171875 -15.265625 C 24.171875 -18.515625 23.460938 -20.988281 22.046875 -22.6875 C 20.640625 -24.394531 18.765625 -25.25 16.421875 -25.25 C 14.078125 -25.25 12.195312 -24.394531 10.78125 -22.6875 C 9.375 -20.988281 8.671875 -18.515625 8.671875 -15.265625 C 8.671875 -12.035156 9.375 -9.566406 10.78125 -7.859375 C 12.195312 -6.148438 14.078125 -5.296875 16.421875 -5.296875 C 18.765625 -5.296875 20.640625 -6.148438 22.046875 -7.859375 C 23.460938 -9.566406 24.171875 -12.035156 24.171875 -15.265625 Z M 24.171875 -15.265625 "/></g></g></g><g fill="#a6a6a6" fill-opacity="0.4"><g transform="translate(627.683464, 866.800753)"><g><path d="M 2.65625 -30.546875 L 10.625 -30.546875 L 19.03125 -10.015625 L 19.390625 -10.015625 L 27.796875 -30.546875 L 35.765625 -30.546875 L 35.765625 0 L 29.5 0 L 29.5 -19.875 L 29.25 -19.875 L 21.34375 -0.15625 L 17.078125 -0.15625 L 9.171875 -19.953125 L 8.921875 -19.953125 L 8.921875 0 L 2.65625 0 Z M 2.65625 -30.546875 "/></g></g></g><g fill="#a6a6a6" fill-opacity="0.4"><g transform="translate(672.959652, 866.800753)"><g/></g></g><g fill="#a6a6a6" fill-opacity="0.4"><g transform="translate(689.167117, 866.800753)"><g><path d="M 9.109375 -30.546875 L 9.109375 0 L 2.65625 0 L 2.65625 -30.546875 Z M 9.109375 -30.546875 "/></g></g></g><g fill="#a6a6a6" fill-opacity="0.4"><g transform="translate(707.417878, 866.800753)"><g><path d="M 28.203125 -30.546875 L 28.203125 0 L 22.625 0 L 9.34375 -19.21875 L 9.109375 -19.21875 L 9.109375 0 L 2.65625 0 L 2.65625 -30.546875 L 8.328125 -30.546875 L 21.5 -11.328125 L 21.78125 -11.328125 L 21.78125 -30.546875 Z M 28.203125 -30.546875 "/></g></g></g><g fill="#a6a6a6" fill-opacity="0.4"><g transform="translate(744.759443, 866.800753)"><g><path d="M 1.484375 -25.21875 L 1.484375 -30.546875 L 26.578125 -30.546875 L 26.578125 -25.21875 L 17.21875 -25.21875 L 17.21875 0 L 10.84375 0 L 10.84375 -25.21875 Z M 1.484375 -25.21875 "/></g></g></g><g fill="#a6a6a6" fill-opacity="0.4"><g transform="translate(779.297068, 866.800753)"><g><path d="M 2.65625 0 L 2.65625 -30.546875 L 23.234375 -30.546875 L 23.234375 -25.21875 L 9.109375 -25.21875 L 9.109375 -17.9375 L 22.171875 -17.9375 L 22.171875 -12.625 L 9.109375 -12.625 L 9.109375 -5.328125 L 23.296875 -5.328125 L 23.296875 0 Z M 2.65625 0 "/></g></g></g><g fill="#a6a6a6" fill-opacity="0.4"><g transform="translate(811.493095, 866.800753)"><g><path d="M 2.65625 0 L 2.65625 -30.546875 L 14.703125 -30.546875 C 18.171875 -30.546875 20.863281 -29.640625 22.78125 -27.828125 C 24.695312 -26.015625 25.65625 -23.59375 25.65625 -20.5625 C 25.65625 -18.476562 25.1875 -16.691406 24.25 -15.203125 C 23.320312 -13.722656 21.988281 -12.613281 20.25 -11.875 L 26.734375 0 L 19.609375 0 L 13.828125 -10.828125 L 9.109375 -10.828125 L 9.109375 0 Z M 9.109375 -16.015625 L 13.5 -16.015625 C 17.164062 -16.015625 19 -17.53125 19 -20.5625 C 19 -23.695312 17.15625 -25.265625 13.46875 -25.265625 L 9.109375 -25.265625 Z M 9.109375 -16.015625 "/></g></g></g><g fill="#a6a6a6" fill-opacity="0.4"><g transform="translate(845.52361, 866.800753)"><g><path d="M 7.921875 0 L 1 0 L 11.546875 -30.546875 L 19.859375 -30.546875 L 30.390625 0 L 23.46875 0 L 21.203125 -6.96875 L 10.1875 -6.96875 Z M 11.828125 -12 L 19.578125 -12 L 15.828125 -23.5625 L 15.578125 -23.5625 Z M 11.828125 -12 "/></g></g></g><g fill="#a6a6a6" fill-opacity="0.4"><g transform="translate(883.402086, 866.800753)"><g><path d="M 29.609375 -19.84375 L 23.078125 -19.84375 C 22.828125 -21.53125 22.109375 -22.851562 20.921875 -23.8125 C 19.742188 -24.769531 18.269531 -25.25 16.5 -25.25 C 14.132812 -25.25 12.238281 -24.378906 10.8125 -22.640625 C 9.382812 -20.910156 8.671875 -18.453125 8.671875 -15.265625 C 8.671875 -12.003906 9.382812 -9.523438 10.8125 -7.828125 C 12.25 -6.140625 14.128906 -5.296875 16.453125 -5.296875 C 18.171875 -5.296875 19.625 -5.742188 20.8125 -6.640625 C 22.007812 -7.546875 22.765625 -8.8125 23.078125 -10.4375 L 29.609375 -10.40625 C 29.378906 -8.539062 28.710938 -6.78125 27.609375 -5.125 C 26.503906 -3.476562 25.003906 -2.140625 23.109375 -1.109375 C 21.210938 -0.0859375 18.957031 0.421875 16.34375 0.421875 C 13.625 0.421875 11.191406 -0.191406 9.046875 -1.421875 C 6.898438 -2.660156 5.207031 -4.445312 3.96875 -6.78125 C 2.738281 -9.125 2.125 -11.953125 2.125 -15.265625 C 2.125 -18.597656 2.75 -21.429688 4 -23.765625 C 5.25 -26.109375 6.945312 -27.894531 9.09375 -29.125 C 11.238281 -30.351562 13.65625 -30.96875 16.34375 -30.96875 C 18.695312 -30.96875 20.820312 -30.53125 22.71875 -29.65625 C 24.613281 -28.789062 26.164062 -27.53125 27.375 -25.875 C 28.582031 -24.21875 29.328125 -22.207031 29.609375 -19.84375 Z M 29.609375 -19.84375 "/></g></g></g><g fill="#a6a6a6" fill-opacity="0.4"><g transform="translate(921.459547, 866.800753)"><g><path d="M 1.484375 -25.21875 L 1.484375 -30.546875 L 26.578125 -30.546875 L 26.578125 -25.21875 L 17.21875 -25.21875 L 17.21875 0 L 10.84375 0 L 10.84375 -25.21875 Z M 1.484375 -25.21875 "/></g></g></g><g fill="#a6a6a6" fill-opacity="0.4"><g transform="translate(955.997172, 866.800753)"><g><path d="M 9.109375 -30.546875 L 9.109375 0 L 2.65625 0 L 2.65625 -30.546875 Z M 9.109375 -30.546875 "/></g></g></g><g fill="#a6a6a6" fill-opacity="0.4"><g transform="translate(974.247934, 866.800753)"><g><path d="M 8.171875 -30.546875 L 15.5625 -7.34375 L 15.84375 -7.34375 L 23.234375 -30.546875 L 30.390625 -30.546875 L 19.859375 0 L 11.546875 0 L 1 -30.546875 Z M 8.171875 -30.546875 "/></g></g></g><g fill="#a6a6a6" fill-opacity="0.4"><g transform="translate(1012.126456, 866.800753)"><g><path d="M 30.71875 -15.265625 C 30.71875 -11.941406 30.085938 -9.109375 28.828125 -6.765625 C 27.578125 -4.429688 25.875 -2.648438 23.71875 -1.421875 C 21.5625 -0.191406 19.128906 0.421875 16.421875 0.421875 C 13.703125 0.421875 11.265625 -0.191406 9.109375 -1.421875 C 6.953125 -2.660156 5.25 -4.453125 4 -6.796875 C 2.75 -9.140625 2.125 -11.960938 2.125 -15.265625 C 2.125 -18.597656 2.75 -21.429688 4 -23.765625 C 5.25 -26.109375 6.953125 -27.894531 9.109375 -29.125 C 11.265625 -30.351562 13.703125 -30.96875 16.421875 -30.96875 C 19.128906 -30.96875 21.5625 -30.351562 23.71875 -29.125 C 25.875 -27.894531 27.578125 -26.109375 28.828125 -23.765625 C 30.085938 -21.429688 30.71875 -18.597656 30.71875 -15.265625 Z M 24.171875 -15.265625 C 24.171875 -18.515625 23.460938 -20.988281 22.046875 -22.6875 C 20.640625 -24.394531 18.765625 -25.25 16.421875 -25.25 C 14.078125 -25.25 12.195312 -24.394531 10.78125 -22.6875 C 9.375 -20.988281 8.671875 -18.515625 8.671875 -15.265625 C 8.671875 -12.035156 9.375 -9.566406 10.78125 -7.859375 C 12.195312 -6.148438 14.078125 -5.296875 16.421875 -5.296875 C 18.765625 -5.296875 20.640625 -6.148438 22.046875 -7.859375 C 23.460938 -9.566406 24.171875 -12.035156 24.171875 -15.265625 Z M 24.171875 -15.265625 "/></g></g></g><g fill="#ffffff" fill-opacity="1"><g transform="translate(352.116711, 864.944545)"><g><path d="M 19.21875 -21.765625 C 19.101562 -22.960938 18.585938 -23.894531 17.671875 -24.5625 C 16.765625 -25.226562 15.539062 -25.5625 14 -25.5625 C 12.425781 -25.5625 11.210938 -25.238281 10.359375 -24.59375 C 9.515625 -23.945312 9.09375 -23.128906 9.09375 -22.140625 C 9.070312 -21.046875 9.539062 -20.21875 10.5 -19.65625 C 11.46875 -19.101562 12.613281 -18.671875 13.9375 -18.359375 L 16.671875 -17.703125 C 18.441406 -17.304688 20.015625 -16.726562 21.390625 -15.96875 C 22.765625 -15.21875 23.847656 -14.25 24.640625 -13.0625 C 25.429688 -11.875 25.828125 -10.425781 25.828125 -8.71875 C 25.816406 -5.925781 24.769531 -3.703125 22.6875 -2.046875 C 20.601562 -0.390625 17.695312 0.4375 13.96875 0.4375 C 10.257812 0.4375 7.300781 -0.40625 5.09375 -2.09375 C 2.894531 -3.789062 1.753906 -6.289062 1.671875 -9.59375 L 7.921875 -9.59375 C 8.023438 -8.0625 8.625 -6.910156 9.71875 -6.140625 C 10.820312 -5.367188 12.21875 -4.984375 13.90625 -4.984375 C 15.539062 -4.984375 16.847656 -5.328125 17.828125 -6.015625 C 18.804688 -6.710938 19.300781 -7.617188 19.3125 -8.734375 C 19.300781 -9.773438 18.847656 -10.570312 17.953125 -11.125 C 17.054688 -11.6875 15.78125 -12.164062 14.125 -12.5625 L 10.796875 -13.390625 C 8.222656 -14.003906 6.1875 -14.984375 4.6875 -16.328125 C 3.195312 -17.671875 2.457031 -19.46875 2.46875 -21.71875 C 2.457031 -23.5625 2.953125 -25.175781 3.953125 -26.5625 C 4.953125 -27.957031 6.328125 -29.039062 8.078125 -29.8125 C 9.828125 -30.582031 11.816406 -30.96875 14.046875 -30.96875 C 16.316406 -30.96875 18.296875 -30.578125 19.984375 -29.796875 C 21.679688 -29.023438 23.003906 -27.945312 23.953125 -26.5625 C 24.898438 -25.175781 25.390625 -23.578125 25.421875 -21.765625 Z M 19.21875 -21.765625 "/></g></g></g><g fill="#ffffff" fill-opacity="1"><g transform="translate(386.087567, 864.944545)"><g><path d="M 2.65625 0 L 2.65625 -30.546875 L 9.109375 -30.546875 L 9.109375 -17.9375 L 22.21875 -17.9375 L 22.21875 -30.546875 L 28.671875 -30.546875 L 28.671875 0 L 22.21875 0 L 22.21875 -12.625 L 9.109375 -12.625 L 9.109375 0 Z M 2.65625 0 "/></g></g></g><g fill="#ffffff" fill-opacity="1"><g transform="translate(423.891496, 864.944545)"><g><path d="M 30.71875 -15.265625 C 30.71875 -11.941406 30.085938 -9.109375 28.828125 -6.765625 C 27.578125 -4.429688 25.875 -2.648438 23.71875 -1.421875 C 21.5625 -0.191406 19.128906 0.421875 16.421875 0.421875 C 13.703125 0.421875 11.265625 -0.191406 9.109375 -1.421875 C 6.953125 -2.660156 5.25 -4.453125 4 -6.796875 C 2.75 -9.140625 2.125 -11.960938 2.125 -15.265625 C 2.125 -18.597656 2.75 -21.429688 4 -23.765625 C 5.25 -26.109375 6.953125 -27.894531 9.109375 -29.125 C 11.265625 -30.351562 13.703125 -30.96875 16.421875 -30.96875 C 19.128906 -30.96875 21.5625 -30.351562 23.71875 -29.125 C 25.875 -27.894531 27.578125 -26.109375 28.828125 -23.765625 C 30.085938 -21.429688 30.71875 -18.597656 30.71875 -15.265625 Z M 24.171875 -15.265625 C 24.171875 -18.515625 23.460938 -20.988281 22.046875 -22.6875 C 20.640625 -24.394531 18.765625 -25.25 16.421875 -25.25 C 14.078125 -25.25 12.195312 -24.394531 10.78125 -22.6875 C 9.375 -20.988281 8.671875 -18.515625 8.671875 -15.265625 C 8.671875 -12.035156 9.375 -9.566406 10.78125 -7.859375 C 12.195312 -6.148438 14.078125 -5.296875 16.421875 -5.296875 C 18.765625 -5.296875 20.640625 -6.148438 22.046875 -7.859375 C 23.460938 -9.566406 24.171875 -12.035156 24.171875 -15.265625 Z M 24.171875 -15.265625 "/></g></g></g><g fill="#ffffff" fill-opacity="1"><g transform="translate(463.201811, 864.944545)"><g><path d="M 9.53125 0 L 0.796875 -30.546875 L 7.84375 -30.546875 L 12.90625 -9.328125 L 13.15625 -9.328125 L 18.734375 -30.546875 L 24.765625 -30.546875 L 30.34375 -9.28125 L 30.609375 -9.28125 L 35.65625 -30.546875 L 42.71875 -30.546875 L 33.96875 0 L 27.6875 0 L 21.859375 -19.96875 L 21.625 -19.96875 L 15.828125 0 Z M 9.53125 0 "/></g></g></g><g fill="#ffffff" fill-opacity="1"><g transform="translate(513.17613, 864.944545)"><g><path d="M 2.65625 0 L 2.65625 -30.546875 L 14.703125 -30.546875 C 18.171875 -30.546875 20.863281 -29.640625 22.78125 -27.828125 C 24.695312 -26.015625 25.65625 -23.59375 25.65625 -20.5625 C 25.65625 -18.476562 25.1875 -16.691406 24.25 -15.203125 C 23.320312 -13.722656 21.988281 -12.613281 20.25 -11.875 L 26.734375 0 L 19.609375 0 L 13.828125 -10.828125 L 9.109375 -10.828125 L 9.109375 0 Z M 9.109375 -16.015625 L 13.5 -16.015625 C 17.164062 -16.015625 19 -17.53125 19 -20.5625 C 19 -23.695312 17.15625 -25.265625 13.46875 -25.265625 L 9.109375 -25.265625 Z M 9.109375 -16.015625 "/></g></g></g><g fill="#ffffff" fill-opacity="1"><g transform="translate(547.206644, 864.944545)"><g><path d="M 30.71875 -15.265625 C 30.71875 -11.941406 30.085938 -9.109375 28.828125 -6.765625 C 27.578125 -4.429688 25.875 -2.648438 23.71875 -1.421875 C 21.5625 -0.191406 19.128906 0.421875 16.421875 0.421875 C 13.703125 0.421875 11.265625 -0.191406 9.109375 -1.421875 C 6.953125 -2.660156 5.25 -4.453125 4 -6.796875 C 2.75 -9.140625 2.125 -11.960938 2.125 -15.265625 C 2.125 -18.597656 2.75 -21.429688 4 -23.765625 C 5.25 -26.109375 6.953125 -27.894531 9.109375 -29.125 C 11.265625 -30.351562 13.703125 -30.96875 16.421875 -30.96875 C 19.128906 -30.96875 21.5625 -30.351562 23.71875 -29.125 C 25.875 -27.894531 27.578125 -26.109375 28.828125 -23.765625 C 30.085938 -21.429688 30.71875 -18.597656 30.71875 -15.265625 Z M 24.171875 -15.265625 C 24.171875 -18.515625 23.460938 -20.988281 22.046875 -22.6875 C 20.640625 -24.394531 18.765625 -25.25 16.421875 -25.25 C 14.078125 -25.25 12.195312 -24.394531 10.78125 -22.6875 C 9.375 -20.988281 8.671875 -18.515625 8.671875 -15.265625 C 8.671875 -12.035156 9.375 -9.566406 10.78125 -7.859375 C 12.195312 -6.148438 14.078125 -5.296875 16.421875 -5.296875 C 18.765625 -5.296875 20.640625 -6.148438 22.046875 -7.859375 C 23.460938 -9.566406 24.171875 -12.035156 24.171875 -15.265625 Z M 24.171875 -15.265625 "/></g></g></g><g fill="#ffffff" fill-opacity="1"><g transform="translate(586.516958, 864.944545)"><g><path d="M 30.71875 -15.265625 C 30.71875 -11.941406 30.085938 -9.109375 28.828125 -6.765625 C 27.578125 -4.429688 25.875 -2.648438 23.71875 -1.421875 C 21.5625 -0.191406 19.128906 0.421875 16.421875 0.421875 C 13.703125 0.421875 11.265625 -0.191406 9.109375 -1.421875 C 6.953125 -2.660156 5.25 -4.453125 4 -6.796875 C 2.75 -9.140625 2.125 -11.960938 2.125 -15.265625 C 2.125 -18.597656 2.75 -21.429688 4 -23.765625 C 5.25 -26.109375 6.953125 -27.894531 9.109375 -29.125 C 11.265625 -30.351562 13.703125 -30.96875 16.421875 -30.96875 C 19.128906 -30.96875 21.5625 -30.351562 23.71875 -29.125 C 25.875 -27.894531 27.578125 -26.109375 28.828125 -23.765625 C 30.085938 -21.429688 30.71875 -18.597656 30.71875 -15.265625 Z M 24.171875 -15.265625 C 24.171875 -18.515625 23.460938 -20.988281 22.046875 -22.6875 C 20.640625 -24.394531 18.765625 -25.25 16.421875 -25.25 C 14.078125 -25.25 12.195312 -24.394531 10.78125 -22.6875 C 9.375 -20.988281 8.671875 -18.515625 8.671875 -15.265625 C 8.671875 -12.035156 9.375 -9.566406 10.78125 -7.859375 C 12.195312 -6.148438 14.078125 -5.296875 16.421875 -5.296875 C 18.765625 -5.296875 20.640625 -6.148438 22.046875 -7.859375 C 23.460938 -9.566406 24.171875 -12.035156 24.171875 -15.265625 Z M 24.171875 -15.265625 "/></g></g></g><g fill="#ffffff" fill-opacity="1"><g transform="translate(625.827273, 864.944545)"><g><path d="M 2.65625 -30.546875 L 10.625 -30.546875 L 19.03125 -10.015625 L 19.390625 -10.015625 L 27.796875 -30.546875 L 35.765625 -30.546875 L 35.765625 0 L 29.5 0 L 29.5 -19.875 L 29.25 -19.875 L 21.34375 -0.15625 L 17.078125 -0.15625 L 9.171875 -19.953125 L 8.921875 -19.953125 L 8.921875 0 L 2.65625 0 Z M 2.65625 -30.546875 "/></g></g></g><g fill="#ffffff" fill-opacity="1"><g transform="translate(671.103461, 864.944545)"><g/></g></g><g fill="#ffffff" fill-opacity="1"><g transform="translate(687.310926, 864.944545)"><g><path d="M 9.109375 -30.546875 L 9.109375 0 L 2.65625 0 L 2.65625 -30.546875 Z M 9.109375 -30.546875 "/></g></g></g><g fill="#ffffff" fill-opacity="1"><g transform="translate(705.561687, 864.944545)"><g><path d="M 28.203125 -30.546875 L 28.203125 0 L 22.625 0 L 9.34375 -19.21875 L 9.109375 -19.21875 L 9.109375 0 L 2.65625 0 L 2.65625 -30.546875 L 8.328125 -30.546875 L 21.5 -11.328125 L 21.78125 -11.328125 L 21.78125 -30.546875 Z M 28.203125 -30.546875 "/></g></g></g><g fill="#ffffff" fill-opacity="1"><g transform="translate(742.903252, 864.944545)"><g><path d="M 1.484375 -25.21875 L 1.484375 -30.546875 L 26.578125 -30.546875 L 26.578125 -25.21875 L 17.21875 -25.21875 L 17.21875 0 L 10.84375 0 L 10.84375 -25.21875 Z M 1.484375 -25.21875 "/></g></g></g><g fill="#ffffff" fill-opacity="1"><g transform="translate(777.440877, 864.944545)"><g><path d="M 2.65625 0 L 2.65625 -30.546875 L 23.234375 -30.546875 L 23.234375 -25.21875 L 9.109375 -25.21875 L 9.109375 -17.9375 L 22.171875 -17.9375 L 22.171875 -12.625 L 9.109375 -12.625 L 9.109375 -5.328125 L 23.296875 -5.328125 L 23.296875 0 Z M 2.65625 0 "/></g></g></g><g fill="#ffffff" fill-opacity="1"><g transform="translate(809.636904, 864.944545)"><g><path d="M 2.65625 0 L 2.65625 -30.546875 L 14.703125 -30.546875 C 18.171875 -30.546875 20.863281 -29.640625 22.78125 -27.828125 C 24.695312 -26.015625 25.65625 -23.59375 25.65625 -20.5625 C 25.65625 -18.476562 25.1875 -16.691406 24.25 -15.203125 C 23.320312 -13.722656 21.988281 -12.613281 20.25 -11.875 L 26.734375 0 L 19.609375 0 L 13.828125 -10.828125 L 9.109375 -10.828125 L 9.109375 0 Z M 9.109375 -16.015625 L 13.5 -16.015625 C 17.164062 -16.015625 19 -17.53125 19 -20.5625 C 19 -23.695312 17.15625 -25.265625 13.46875 -25.265625 L 9.109375 -25.265625 Z M 9.109375 -16.015625 "/></g></g></g><g fill="#ffffff" fill-opacity="1"><g transform="translate(843.667419, 864.944545)"><g><path d="M 7.921875 0 L 1 0 L 11.546875 -30.546875 L 19.859375 -30.546875 L 30.390625 0 L 23.46875 0 L 21.203125 -6.96875 L 10.1875 -6.96875 Z M 11.828125 -12 L 19.578125 -12 L 15.828125 -23.5625 L 15.578125 -23.5625 Z M 11.828125 -12 "/></g></g></g><g fill="#ffffff" fill-opacity="1"><g transform="translate(881.545895, 864.944545)"><g><path d="M 29.609375 -19.84375 L 23.078125 -19.84375 C 22.828125 -21.53125 22.109375 -22.851562 20.921875 -23.8125 C 19.742188 -24.769531 18.269531 -25.25 16.5 -25.25 C 14.132812 -25.25 12.238281 -24.378906 10.8125 -22.640625 C 9.382812 -20.910156 8.671875 -18.453125 8.671875 -15.265625 C 8.671875 -12.003906 9.382812 -9.523438 10.8125 -7.828125 C 12.25 -6.140625 14.128906 -5.296875 16.453125 -5.296875 C 18.171875 -5.296875 19.625 -5.742188 20.8125 -6.640625 C 22.007812 -7.546875 22.765625 -8.8125 23.078125 -10.4375 L 29.609375 -10.40625 C 29.378906 -8.539062 28.710938 -6.78125 27.609375 -5.125 C 26.503906 -3.476562 25.003906 -2.140625 23.109375 -1.109375 C 21.210938 -0.0859375 18.957031 0.421875 16.34375 0.421875 C 13.625 0.421875 11.191406 -0.191406 9.046875 -1.421875 C 6.898438 -2.660156 5.207031 -4.445312 3.96875 -6.78125 C 2.738281 -9.125 2.125 -11.953125 2.125 -15.265625 C 2.125 -18.597656 2.75 -21.429688 4 -23.765625 C 5.25 -26.109375 6.945312 -27.894531 9.09375 -29.125 C 11.238281 -30.351562 13.65625 -30.96875 16.34375 -30.96875 C 18.695312 -30.96875 20.820312 -30.53125 22.71875 -29.65625 C 24.613281 -28.789062 26.164062 -27.53125 27.375 -25.875 C 28.582031 -24.21875 29.328125 -22.207031 29.609375 -19.84375 Z M 29.609375 -19.84375 "/></g></g></g><g fill="#ffffff" fill-opacity="1"><g transform="translate(919.603356, 864.944545)"><g><path d="M 1.484375 -25.21875 L 1.484375 -30.546875 L 26.578125 -30.546875 L 26.578125 -25.21875 L 17.21875 -25.21875 L 17.21875 0 L 10.84375 0 L 10.84375 -25.21875 Z M 1.484375 -25.21875 "/></g></g></g><g fill="#ffffff" fill-opacity="1"><g transform="translate(954.140981, 864.944545)"><g><path d="M 9.109375 -30.546875 L 9.109375 0 L 2.65625 0 L 2.65625 -30.546875 Z M 9.109375 -30.546875 "/></g></g></g><g fill="#ffffff" fill-opacity="1"><g transform="translate(972.391743, 864.944545)"><g><path d="M 8.171875 -30.546875 L 15.5625 -7.34375 L 15.84375 -7.34375 L 23.234375 -30.546875 L 30.390625 -30.546875 L 19.859375 0 L 11.546875 0 L 1 -30.546875 Z M 8.171875 -30.546875 "/></g></g></g><g fill="#ffffff" fill-opacity="1"><g transform="translate(1010.270265, 864.944545)"><g><path d="M 30.71875 -15.265625 C 30.71875 -11.941406 30.085938 -9.109375 28.828125 -6.765625 C 27.578125 -4.429688 25.875 -2.648438 23.71875 -1.421875 C 21.5625 -0.191406 19.128906 0.421875 16.421875 0.421875 C 13.703125 0.421875 11.265625 -0.191406 9.109375 -1.421875 C 6.953125 -2.660156 5.25 -4.453125 4 -6.796875 C 2.75 -9.140625 2.125 -11.960938 2.125 -15.265625 C 2.125 -18.597656 2.75 -21.429688 4 -23.765625 C 5.25 -26.109375 6.953125 -27.894531 9.109375 -29.125 C 11.265625 -30.351562 13.703125 -30.96875 16.421875 -30.96875 C 19.128906 -30.96875 21.5625 -30.351562 23.71875 -29.125 C 25.875 -27.894531 27.578125 -26.109375 28.828125 -23.765625 C 30.085938 -21.429688 30.71875 -18.597656 30.71875 -15.265625 Z M 24.171875 -15.265625 C 24.171875 -18.515625 23.460938 -20.988281 22.046875 -22.6875 C 20.640625 -24.394531 18.765625 -25.25 16.421875 -25.25 C 14.078125 -25.25 12.195312 -24.394531 10.78125 -22.6875 C 9.375 -20.988281 8.671875 -18.515625 8.671875 -15.265625 C 8.671875 -12.035156 9.375 -9.566406 10.78125 -7.859375 C 12.195312 -6.148438 14.078125 -5.296875 16.421875 -5.296875 C 18.765625 -5.296875 20.640625 -6.148438 22.046875 -7.859375 C 23.460938 -9.566406 24.171875 -12.035156 24.171875 -15.265625 Z M 24.171875 -15.265625 "/></g></g></g></svg>